<?xml version="1.0" encoding="iso-8859-1"?>
<!-- Uploaded to: SVG Repo, www.svgrepo.com, Generator: SVG Repo Mixer Tools -->
<svg height="800px" width="800px" version="1.1" id="Layer_1" xmlns="http://www.w3.org/2000/svg" xmlns:xlink="http://www.w3.org/1999/xlink" 
	 viewBox="0 0 410 410" xml:space="preserve">
<g id="XMLID_470_">
	<g id="XMLID_473_">
		<path id="XMLID_474_" style="fill:#802812;" d="M139.951,160c0,0,30-60,50-60s20,30,60,40s60,30,50,50L139.951,160z"/>
	</g>
	<g id="XMLID_475_">
		<path id="XMLID_476_" style="fill:#802812;" d="M163.125,260c0,0,10,40,60,50c0,0,30-30,10-60L163.125,260z"/>
	</g>
	<g id="XMLID_477_">
		<path id="XMLID_478_" style="fill:#802812;" d="M260,250c0,0,20,20,40,20c0,0,10-40-10-50L260,250z"/>
	</g>
	<g id="XMLID_479_">
		<path id="XMLID_481_" style="fill:#FF9811;" d="M390,210c0-20,20-30,20-60c-50,0-49.435,20.383-85.851,31
			c-32.151,0-62.522-16.672-114.118-25.362C190.242,152.306,167.331,150,140,150C30,150,0,210,0,210s30,60,140,60
			c27.545,0,50.444-2.342,70.158-5.717C261.004,255.578,290.653,239,324.149,239C360.565,249.617,360,270,410,270
			C410,240,390,230,390,210z"/>
	</g>
	<g id="XMLID_59_">
		<path id="XMLID_483_" style="fill:#FF5023;" d="M100,210c0,20.66-9.003,39.251-23.284,52.076
			c7.031,1.948,14.647,3.617,22.888,4.914C112.344,251.46,120,231.608,120,210H100z"/>
		<path id="XMLID_484_" style="fill:#FF5023;" d="M410,270c0-30-20-40-20-60s20-30,20-60c-50,0-49.435,19.383-85.851,30
			c-32.156,0-62.539-15.676-114.149-24.364v108.672c50.94-8.7,80.62-24.308,114.149-24.308C360.565,250.617,360,270,410,270z"/>
	</g>
	<g id="XMLID_482_">
		<circle id="XMLID_486_" style="fill:#802812;" cx="60" cy="200" r="10"/>
	</g>
</g>
</svg>