<?xml version="1.0" encoding="iso-8859-1"?>
<!-- Uploaded to: SVG Repo, www.svgrepo.com, Generator: SVG Repo Mixer Tools -->
<svg height="800px" width="800px" version="1.1" id="Layer_1" xmlns="http://www.w3.org/2000/svg" xmlns:xlink="http://www.w3.org/1999/xlink" 
	 viewBox="0 0 460 460" xml:space="preserve">
<g id="XMLID_460_">
	<path id="XMLID_461_" style="fill:#FFDA44;" d="M390,160c-32.58-13.032-62.192-10.19-83.572-0.373C314.575,101.394,355,65,355,65
		c-60,0-101.651,6.991-140,30c-50,30-50,100-50,100v70c0,0,0,70,50,100c38.349,23.009,80,30,140,30c0,0-40.896-36.81-48.714-95.632
		C324.37,311.593,346.01,323.146,370,330c39.645,11.327,90,0,90,0C460,250,440,180,390,160z"/>
	<path id="XMLID_462_" style="fill:#FF9811;" d="M378.858,187.855c-11.005-4.402-21.961-6.634-32.563-6.634
		c-9.814,0-19.271,1.96-27.35,5.67c0,0-20.321,8.484-30.26,13.895c-5.786,3.149-13.239,7.32-18.462,10.257
		c0.445-11.295,1.778-31.597,5.775-51.042c5.967-29.029,10.496-45.226,18.374-61.236c-25.588,3.863-46.034,10.034-63.939,21.96
		C205,137.667,193.722,172.685,190,190l2,69l5.783,27.486c3.722,17.315,12.406,40.642,32.651,52.789
		c18.448,11.069,38.347,18.097,63.935,21.961C286.348,344.929,279,323,275.667,294.667c-2.163-20.545,0.304-37.638,3.024-49.016
		l44.396,28.863c18.5,12.506,37.057,21.469,55.154,26.64c9.01,2.574,20.016,3.88,32.711,3.88c0.002,0,0.001,0,0.003,0
		c6.468,0,12.683-0.346,18.267-0.842C425.342,241.905,407.129,199.163,378.858,187.855z"/>
	<g id="XMLID_464_">
		<path id="XMLID_466_" style="fill:#006DF0;" d="M310,230c0,0-108.203,60-180,60C20,290,0,230,0,230s20-60,130-60
			C201.797,170,310,230,310,230z"/>
	</g>
	<g id="XMLID_61_">
		<path id="XMLID_468_" style="fill:#0052B4;" d="M140,170.364v119.272C211.408,284.668,310,230,310,230
			S211.408,175.331,140,170.364z"/>
	</g>
	<g id="XMLID_467_">
		<circle id="XMLID_469_" style="fill:#001B3C;" cx="50" cy="220" r="10"/>
	</g>
	<g id="XMLID_57_">
		<path id="XMLID_472_" style="fill:#003778;" d="M100,230c0,21.635-9.869,41.006-25.339,53.856
			c7.28,1.802,15.241,3.278,23.938,4.332C111.938,272.486,120,252.169,120,230H100z"/>
	</g>
</g>
</svg>