<?xml version="1.0" encoding="iso-8859-1"?>
<!-- Uploaded to: SVG Repo, www.svgrepo.com, Generator: SVG Repo Mixer Tools -->
<svg version="1.1" id="Layer_1" xmlns="http://www.w3.org/2000/svg" xmlns:xlink="http://www.w3.org/1999/xlink" 
	 viewBox="0 0 380 380" xml:space="preserve">
<g id="XMLID_227_">
	<g id="XMLID_228_">
		<path id="XMLID_229_" style="fill:#FF5023;" d="M350,140l-90,40v40l90,40c0,0,30-10,30-60S350,140,350,140z"/>
	</g>
	<g id="XMLID_230_">
		<path id="XMLID_231_" style="fill:#FF9811;" d="M150,280c30,0,90,10,120,0s41.125-40.406,1.125-60.406L150,280z"/>
	</g>
	<g id="XMLID_63_">
		<g>
			<path id="XMLID_239_" style="fill:#FFE98F;" d="M290,170c0,0,9.998-19.939,10-20c-49-60.333-61-85.667-156-70
				c-56.805,9.368-77,24.334-89.666,45c-8.81,14.374-18.475,51.67-19.274,89.94L0,250c34.147,13.659,56.294,18.987,65.642,20.36
				C82.832,282.126,107.873,290,150,290c130,0,160-90,160-90L290,170z"/>
		</g>
		<g>
			<g id="XMLID_233_">
				<rect id="XMLID_235_" x="190" y="60" style="fill:#FFDA44;" width="140" height="240"/>
			</g>
		</g>
		<g>
			<g id="XMLID_236_">
				<path id="XMLID_237_" style="fill:#FF9811;" d="M290,170c-10-20-60-80-100-80S70,100,70,100l20-20l150-20l70,70l-10,40H290z"/>
			</g>
		</g>
	</g>
	<g id="XMLID_232_">
		<circle id="XMLID_240_" style="fill:#802812;" cx="70" cy="190" r="10"/>
	</g>
	<g id="XMLID_241_">
		<path id="XMLID_60_" style="fill:#FF9811;" d="M190,317.708c0,0-37.383,15.744-61.768-35.299c3.332-9.429,9.097-25.74,9.097-25.74
			L190,317.708z"/>
	</g>
	<g id="XMLID_57_">
		<path id="XMLID_243_" style="fill:#FFDA44;" d="M120,210h-20c0,25.671-13.9,48.146-34.561,60.329
			c0.066,0.01,0.138,0.022,0.202,0.031c5.706,3.906,12.286,7.379,20.061,10.281C106.578,264.145,120,238.611,120,210z"/>
	</g>
</g>
</svg>